<svg xmlns="http://www.w3.org/2000/svg" width="64" height="64"><path d="M31 4C15.012 4 2 17.008 2 33s13.012 29 29 29 29-13.008 29-29S46.988 4 31 4zm0 2c14.887 0 27 12.113 27 27S45.887 60 31 60 4 47.887 4 33 16.113 6 31 6zm-.438 4.004a23.102 23.102 0 00-15.824 6.73c-8.968 8.97-8.968 23.559 0 32.528.008.008.02.011.028.02.05.046.113.077.171.113.055.035.11.07.168.093.012.004.02.016.036.02a.932.932 0 00.742-.07.786.786 0 00.215-.141c.02-.016.039-.02.054-.035.016-.016.02-.035.032-.047a1.15 1.15 0 00.144-.215c.016-.035.04-.066.05-.105.005-.012.013-.02.017-.036.835-2.597 2.8-4.57 5.125-5.152.05-.012.093-.047.14-.066C24.293 45.164 27.566 46 31 46c3.383 0 6.61-.809 9.219-2.281 2.316.586 4.273 2.554 5.105 5.14.137.426.528.7.953.7.051 0 .102-.02.157-.028.039.004.082.024.125.024a1 1 0 00.707-.293c8.964-8.965 8.964-23.559 0-32.528a24.17 24.17 0 00-2.094-1.855 1.004 1.004 0 00-1.406.172.997.997 0 00.172 1.402 20.685 20.685 0 011.91 1.7c7.89 7.886 8.156 20.53.84 28.769-.97-2.031-2.543-3.64-4.418-4.55 2.664-1.99 4.609-4.563 3.183-10.235l-2.762-12.192a2.65 2.65 0 00-1.937-1.992 2.645 2.645 0 00-2.649.82l-4.734 5.364c-.098-.012-.2-.016-.297-.028a10.34 10.34 0 00-.34-.027A22.691 22.691 0 0031.027 24h-.074c-.465.004-.93.023-1.39.059a10.6 10.6 0 00-.497.039c-.144.015-.293.023-.437.039l-4.734-5.364a2.65 2.65 0 00-2.649-.82 2.65 2.65 0 00-1.937 1.992L16.555 32.11c-1.414 5.618.46 8.2 3.066 10.176-1.887.867-3.476 2.442-4.484 4.438C8 38.484 8.324 25.977 16.152 18.153c4.746-4.75 11.551-6.95 18.188-5.887a.997.997 0 001.144-.829.998.998 0 00-.828-1.148 22.91 22.91 0 00-4.093-.285zm8.094 1.383a.997.997 0 00-.89.648.999.999 0 00.586 1.29c.714.265 1.418.573 2.101.913a.97.97 0 00.45.11c.363 0 .714-.2.894-.551a1.005 1.005 0 00-.445-1.344c-.743-.375-1.52-.71-2.301-1.004a.984.984 0 00-.395-.062zM21.91 19.87c.14 0 .328.043.485.223l3.93 4.453a17.35 17.35 0 00-3.773 1.352 1 1 0 00.893 1.789 15.107 15.107 0 011.875-.778 16.955 16.955 0 013.692-.789c.203-.023.402-.05.605-.066.39-.028.785-.04 1.184-.043.086-.004.172-.008.262-.008.503.004 1.007.027 1.503.07.153.012.305.031.457.047 1.618.18 3.18.555 4.594 1.14a14.28 14.28 0 011.867.938c.16.094.34.14.516.14a1 1 0 00.516-1.855 15.995 15.995 0 00-2.133-1.07c-.863-.355-1.781-.625-2.723-.852l3.945-4.468a.646.646 0 01.657-.203.64.64 0 01.476.496l2.77 12.21c1.316 5.231-.606 6.985-3.465 8.891C37.613 43.11 34.403 44 31 44c-3.402 0-6.613-.89-9.043-2.512-2.86-1.906-4.781-3.66-3.457-8.91l2.762-12.191a.644.644 0 01.648-.516zM31 32c-1.102 0-2 .898-2 2 0 .738.406 1.375 1 1.723v1.863l-.293.293a1 1 0 01-1.414 0l-.586-.586a1 1 0 10-1.414 1.414l.586.586a3.003 3.003 0 004.121.113 2.99 2.99 0 002 .766c.77 0 1.535-.293 2.121-.879l.586-.59a1 1 0 00-1.414-1.41l-.586.586a1 1 0 01-1.414 0L32 37.586v-1.863c.594-.348 1-.985 1-1.723 0-1.102-.898-2-2-2zm-9.625 17.395a.992.992 0 00-.988.492l-1 1.734a.997.997 0 00.363 1.363.995.995 0 001.363-.363l1-1.734a.998.998 0 00-.738-1.492zm19.25 0a1.002 1.002 0 00-.738 1.496l1 1.73a.995.995 0 001.363.363.993.993 0 00.363-1.363l-1-1.73a1.002 1.002 0 00-.988-.496zm-4.438 1.949a.946.946 0 00-.402.027c-.531.14-.847.691-.707 1.223l.52 1.933a1.004 1.004 0 001.226.707 1 1 0 00.707-1.222l-.515-1.934a1.007 1.007 0 00-.828-.734zm-10.37 0a1.007 1.007 0 00-.833.734l-.515 1.934a1 1 0 001.933.515l.52-1.933a1.001 1.001 0 00-1.106-1.25zM31 52a1 1 0 00-1 1v2a1 1 0 102 0v-2a1 1 0 00-1-1zm0 0"/></svg>