<svg width="15" height="15" fill="none" xmlns="http://www.w3.org/2000/svg"><path d="M12.87 7.89c.03-.23.052-.46.052-.704a5.37 5.37 0 00-.053-.704l1.583-1.186a.352.352 0 00.09-.46l-1.5-2.486a.378.378 0 00-.33-.18.364.364 0 00-.127.022l-1.868.718a5.542 5.542 0 00-1.268-.704L9.165.302A.362.362 0 008.796 0h-3c-.188 0-.345.13-.367.302l-.285 1.904c-.458.18-.878.424-1.268.704L2.01 2.192a.441.441 0 00-.135-.022.375.375 0 00-.323.18l-1.5 2.486a.345.345 0 00.09.46l1.583 1.186c-.03.23-.053.467-.053.704 0 .237.022.475.052.705L.142 9.075a.352.352 0 00-.09.46l1.5 2.487c.067.115.195.18.33.18.045 0 .09-.008.128-.022l1.867-.719c.39.287.81.525 1.268.704l.285 1.905c.022.172.18.302.367.302h3c.188 0 .345-.13.367-.302l.286-1.905a5.86 5.86 0 001.267-.704l1.867.719a.44.44 0 00.136.021.375.375 0 00.322-.18l1.5-2.486a.352.352 0 00-.09-.46L12.87 7.89zm-1.486-1.228c.03.222.038.373.038.524 0 .151-.015.31-.038.525l-.104.812.667.503.81.604-.525.87-.952-.367-.78-.302-.675.489c-.323.23-.63.402-.938.524l-.795.31-.12.811-.15.97h-1.05l-.143-.97-.12-.812-.795-.309a4.307 4.307 0 01-.922-.51l-.683-.503-.795.309-.952.366-.525-.87.81-.603.667-.503-.105-.812a5.542 5.542 0 01-.037-.532c0-.143.015-.309.037-.524l.105-.812-.667-.503-.81-.604.525-.87.952.367.78.302.675-.489c.323-.23.63-.402.938-.525l.795-.309.12-.812.15-.97h1.042l.143.97.12.812.795.31c.322.129.623.294.922.51l.683.503.795-.31.953-.366.524.87-.802.61-.667.504.104.812zm-4.087-2.35c-1.657 0-3 1.286-3 2.874s1.343 2.875 3 2.875 3-1.287 3-2.875-1.343-2.874-3-2.874zm0 4.311c-.825 0-1.5-.646-1.5-1.437 0-.79.675-1.437 1.5-1.437s1.5.647 1.5 1.437-.675 1.438-1.5 1.438z" fill="#C2CFE0"/></svg>