<svg width="14" height="15" fill="none" xmlns="http://www.w3.org/2000/svg"><path d="M11.295 10.159c-.572 0-1.084.216-1.476.555L4.45 7.72c.038-.166.068-.332.068-.505s-.03-.339-.068-.505l5.31-2.965c.407.36.941.584 1.536.584 1.25 0 2.26-.967 2.26-2.164C13.554.967 12.544 0 11.294 0S9.035.967 9.035 2.165c0 .173.03.339.068.505L3.795 5.635a2.303 2.303 0 00-1.536-.584C1.009 5.05 0 6.017 0 7.215 0 8.413 1.009 9.38 2.259 9.38a2.3 2.3 0 001.536-.585l5.362 3.002c-.038.151-.06.31-.06.469 0 1.161.986 2.107 2.198 2.107 1.213 0 2.199-.946 2.199-2.107 0-1.162-.986-2.107-2.199-2.107zm0-8.716c.414 0 .753.325.753.722 0 .396-.339.721-.753.721s-.753-.325-.753-.721c0-.397.339-.722.753-.722zM2.26 7.937c-.414 0-.753-.325-.753-.722 0-.397.339-.721.753-.721s.753.324.753.721c0 .397-.339.722-.753.722zm9.036 5.065c-.414 0-.753-.325-.753-.722 0-.397.339-.721.753-.721s.753.324.753.721c0 .397-.339.722-.753.722z" fill="#C2CFE0"/></svg>