<?xml version="1.0" encoding="UTF-8" standalone="yes"?>
<svg xmlns="http://www.w3.org/2000/svg" xmlns:xlink="http://www.w3.org/1999/xlink" width="64px" height="64px" viewBox="0 0 64 64" version="1.1" fill="#000000">
  <g id="surface80612">
    <path style=" stroke:none;fill-rule:nonzero;fill:#000000;fill-opacity:1;" d="M 31 4 C 15.011719 4 2 17.007812 2 33 C 2 48.992188 15.011719 62 31 62 C 46.988281 62 60 48.992188 60 33 C 60 17.007812 46.988281 4 31 4 Z M 31 6 C 45.886719 6 58 18.113281 58 33 C 58 47.886719 45.886719 60 31 60 C 16.113281 60 4 47.886719 4 33 C 4 18.113281 16.113281 6 31 6 Z M 30.5625 10.003906 C 24.671875 10.125 18.964844 12.511719 14.738281 16.734375 C 5.769531 25.703125 5.769531 40.292969 14.738281 49.261719 C 14.746094 49.269531 14.757812 49.273438 14.765625 49.28125 C 14.816406 49.328125 14.878906 49.359375 14.9375 49.394531 C 14.992188 49.429688 15.046875 49.464844 15.105469 49.488281 C 15.117188 49.492188 15.125 49.503906 15.140625 49.507812 C 15.242188 49.539062 15.34375 49.554688 15.445312 49.554688 C 15.566406 49.554688 15.679688 49.527344 15.789062 49.484375 C 15.820312 49.472656 15.851562 49.457031 15.882812 49.4375 C 15.960938 49.402344 16.035156 49.355469 16.097656 49.296875 C 16.117188 49.28125 16.136719 49.277344 16.152344 49.261719 C 16.167969 49.246094 16.171875 49.226562 16.183594 49.214844 C 16.242188 49.148438 16.285156 49.078125 16.328125 49 C 16.34375 48.964844 16.367188 48.933594 16.378906 48.894531 C 16.382812 48.882812 16.390625 48.875 16.394531 48.859375 C 17.230469 46.261719 19.195312 44.289062 21.519531 43.707031 C 21.570312 43.695312 21.613281 43.660156 21.660156 43.640625 C 24.292969 45.164062 27.566406 46 31 46 C 34.382812 46 37.609375 45.191406 40.21875 43.71875 C 42.535156 44.304688 44.492188 46.273438 45.324219 48.859375 C 45.460938 49.285156 45.851562 49.558594 46.277344 49.558594 C 46.328125 49.558594 46.378906 49.539062 46.433594 49.53125 C 46.472656 49.535156 46.515625 49.554688 46.558594 49.554688 C 46.8125 49.554688 47.070312 49.457031 47.265625 49.261719 C 56.230469 40.296875 56.230469 25.703125 47.265625 16.734375 C 46.605469 16.078125 45.902344 15.453125 45.171875 14.878906 C 44.734375 14.539062 44.105469 14.617188 43.765625 15.050781 C 43.425781 15.484375 43.5 16.113281 43.9375 16.453125 C 44.605469 16.976562 45.246094 17.546875 45.847656 18.152344 C 53.738281 26.039062 54.003906 38.683594 46.6875 46.921875 C 45.71875 44.890625 44.144531 43.28125 42.269531 42.371094 C 44.933594 40.382812 46.878906 37.808594 45.453125 32.136719 L 42.691406 19.945312 C 42.46875 18.964844 41.730469 18.203125 40.753906 17.953125 C 39.785156 17.707031 38.765625 18.019531 38.105469 18.773438 L 33.371094 24.136719 C 33.273438 24.125 33.171875 24.121094 33.074219 24.109375 C 32.960938 24.097656 32.84375 24.089844 32.734375 24.082031 C 32.164062 24.035156 31.597656 24.003906 31.027344 24 C 31.019531 24 31.007812 24 31 24 C 30.984375 24 30.96875 24 30.953125 24 C 30.488281 24.003906 30.023438 24.023438 29.5625 24.058594 C 29.398438 24.066406 29.230469 24.082031 29.066406 24.097656 C 28.921875 24.113281 28.773438 24.121094 28.628906 24.136719 L 23.894531 18.773438 C 23.230469 18.019531 22.210938 17.707031 21.246094 17.953125 C 20.269531 18.203125 19.53125 18.964844 19.308594 19.945312 L 16.554688 32.109375 C 15.140625 37.726562 17.015625 40.308594 19.621094 42.285156 C 17.734375 43.152344 16.144531 44.726562 15.136719 46.722656 C 8 38.484375 8.324219 25.976562 16.152344 18.152344 C 20.898438 13.402344 27.703125 11.203125 34.339844 12.265625 C 34.886719 12.355469 35.398438 11.980469 35.484375 11.4375 C 35.574219 10.890625 35.203125 10.375 34.65625 10.289062 C 33.292969 10.070312 31.925781 9.976562 30.5625 10.003906 Z M 38.65625 11.386719 C 38.269531 11.402344 37.910156 11.648438 37.765625 12.035156 C 37.570312 12.554688 37.832031 13.128906 38.351562 13.324219 C 39.066406 13.589844 39.769531 13.898438 40.453125 14.238281 C 40.597656 14.3125 40.75 14.347656 40.902344 14.347656 C 41.265625 14.347656 41.617188 14.148438 41.796875 13.796875 C 42.042969 13.304688 41.84375 12.703125 41.351562 12.453125 C 40.609375 12.078125 39.832031 11.742188 39.050781 11.449219 C 38.921875 11.402344 38.789062 11.378906 38.65625 11.386719 Z M 21.910156 19.871094 C 22.050781 19.871094 22.238281 19.914062 22.394531 20.09375 L 26.324219 24.546875 C 25.765625 24.679688 25.214844 24.832031 24.675781 25.015625 C 23.941406 25.265625 23.226562 25.5625 22.550781 25.898438 C 22.058594 26.144531 21.859375 26.746094 22.105469 27.238281 C 22.351562 27.730469 22.949219 27.933594 23.445312 27.6875 C 24.039062 27.390625 24.667969 27.132812 25.320312 26.910156 C 26.496094 26.511719 27.734375 26.253906 29.011719 26.121094 C 29.214844 26.097656 29.414062 26.070312 29.617188 26.054688 C 30.007812 26.027344 30.402344 26.015625 30.800781 26.011719 C 30.886719 26.007812 30.972656 26.003906 31.0625 26.003906 C 31.566406 26.007812 32.070312 26.03125 32.566406 26.074219 C 32.71875 26.085938 32.871094 26.105469 33.023438 26.121094 C 34.640625 26.300781 36.203125 26.675781 37.617188 27.261719 C 38.273438 27.535156 38.902344 27.847656 39.484375 28.199219 C 39.644531 28.292969 39.824219 28.339844 40 28.339844 C 40.339844 28.339844 40.671875 28.167969 40.859375 27.855469 C 41.140625 27.378906 40.988281 26.765625 40.515625 26.484375 C 39.847656 26.082031 39.128906 25.722656 38.382812 25.414062 C 37.519531 25.058594 36.601562 24.789062 35.660156 24.5625 L 39.605469 20.09375 C 39.84375 19.820312 40.144531 19.863281 40.261719 19.890625 C 40.378906 19.921875 40.660156 20.03125 40.738281 20.386719 L 43.507812 32.597656 C 44.824219 37.828125 42.902344 39.582031 40.042969 41.488281 C 37.613281 43.109375 34.402344 44 31 44 C 27.597656 44 24.386719 43.109375 21.957031 41.488281 C 19.097656 39.582031 17.175781 37.828125 18.5 32.578125 L 21.261719 20.386719 C 21.339844 20.03125 21.621094 19.921875 21.738281 19.890625 C 21.777344 19.882812 21.839844 19.871094 21.910156 19.871094 Z M 31 32 C 29.898438 32 29 32.898438 29 34 C 29 34.738281 29.40625 35.375 30 35.722656 L 30 37.585938 L 29.707031 37.878906 C 29.316406 38.269531 28.683594 38.269531 28.292969 37.878906 L 27.707031 37.292969 C 27.316406 36.902344 26.683594 36.902344 26.292969 37.292969 C 25.902344 37.683594 25.902344 38.316406 26.292969 38.707031 L 26.878906 39.292969 C 28.007812 40.421875 29.824219 40.460938 31 39.40625 C 31.566406 39.914062 32.28125 40.171875 33 40.171875 C 33.769531 40.171875 34.535156 39.878906 35.121094 39.292969 L 35.707031 38.703125 C 36.097656 38.3125 36.097656 37.683594 35.707031 37.292969 C 35.316406 36.902344 34.683594 36.902344 34.292969 37.292969 L 33.707031 37.878906 C 33.316406 38.269531 32.683594 38.269531 32.292969 37.878906 L 32 37.585938 L 32 35.722656 C 32.59375 35.375 33 34.738281 33 34 C 33 32.898438 32.101562 32 31 32 Z M 21.375 49.394531 C 20.984375 49.347656 20.589844 49.527344 20.386719 49.886719 L 19.386719 51.621094 C 19.109375 52.097656 19.273438 52.707031 19.75 52.984375 C 19.90625 53.074219 20.078125 53.121094 20.25 53.121094 C 20.59375 53.121094 20.929688 52.941406 21.113281 52.621094 L 22.113281 50.886719 C 22.390625 50.410156 22.230469 49.796875 21.75 49.519531 C 21.628906 49.453125 21.503906 49.410156 21.375 49.394531 Z M 40.625 49.394531 C 40.496094 49.410156 40.367188 49.453125 40.25 49.519531 C 39.769531 49.796875 39.609375 50.410156 39.886719 50.890625 L 40.886719 52.621094 C 41.070312 52.941406 41.40625 53.121094 41.75 53.121094 C 41.921875 53.121094 42.09375 53.078125 42.25 52.984375 C 42.730469 52.710938 42.890625 52.097656 42.613281 51.621094 L 41.613281 49.890625 C 41.40625 49.53125 41.011719 49.347656 40.625 49.394531 Z M 36.1875 51.34375 C 36.058594 51.324219 35.921875 51.332031 35.785156 51.371094 C 35.253906 51.511719 34.9375 52.0625 35.078125 52.59375 L 35.597656 54.527344 C 35.71875 54.972656 36.121094 55.269531 36.5625 55.269531 C 36.652344 55.269531 36.738281 55.257812 36.824219 55.234375 C 37.355469 55.089844 37.675781 54.542969 37.53125 54.011719 L 37.015625 52.078125 C 36.90625 51.675781 36.570312 51.398438 36.1875 51.34375 Z M 25.816406 51.34375 C 25.429688 51.398438 25.09375 51.675781 24.984375 52.078125 L 24.46875 54.011719 C 24.324219 54.542969 24.644531 55.089844 25.175781 55.234375 C 25.261719 55.257812 25.347656 55.269531 25.4375 55.269531 C 25.875 55.269531 26.28125 54.972656 26.402344 54.527344 L 26.921875 52.59375 C 27.0625 52.0625 26.746094 51.511719 26.214844 51.371094 C 26.078125 51.332031 25.945312 51.328125 25.816406 51.34375 Z M 31 52 C 30.445312 52 30 52.449219 30 53 L 30 55 C 30 55.550781 30.445312 56 31 56 C 31.554688 56 32 55.550781 32 55 L 32 53 C 32 52.449219 31.554688 52 31 52 Z M 31 52 "/>
  </g>
</svg>
